<svg width="32" height="28" viewBox="0 0 32 28" fill="none" xmlns="http://www.w3.org/2000/svg">
<g id="&#240;&#159;&#166;&#134; icon &#34;twitter circle&#34;">
<path id="Vector" d="M15.7838 0.751404C7.29749 0.751404 0.416504 6.75988 0.416504 14.1701C0.416504 21.5804 7.29749 27.5889 15.7838 27.5889C24.2701 27.5889 31.1511 21.5804 31.1511 14.1701C31.1511 6.75988 24.2701 0.751404 15.7838 0.751404ZM23.169 10.8664C23.1793 11.0071 23.1793 11.1539 23.1793 11.2977C23.1793 15.6947 19.3444 20.7597 12.3365 20.7597C10.1754 20.7597 8.1722 20.2116 6.48454 19.2681C6.79325 19.298 7.08825 19.31 7.40383 19.31C9.18754 19.31 10.8272 18.7828 12.1341 17.8902C10.4601 17.8603 9.05376 16.9018 8.57353 15.5839C9.16009 15.6588 9.68835 15.6588 10.2921 15.524C9.43014 15.3711 8.65543 14.9623 8.09953 14.3672C7.54364 13.772 7.24085 13.0272 7.24261 12.2592V12.2172C7.74685 12.4658 8.34028 12.6186 8.96114 12.6396C8.43921 12.3358 8.01118 11.9243 7.71499 11.4416C7.4188 10.9588 7.26362 10.4196 7.26319 9.87195C7.26319 9.25193 7.44842 8.68583 7.78115 8.19461C8.73785 9.22299 9.93165 10.0641 11.285 10.6632C12.6383 11.2623 14.1209 11.6061 15.6363 11.6721C15.0978 9.41068 17.0324 7.58058 19.3581 7.58058C20.4558 7.58058 21.4437 7.98194 22.14 8.62892C23.001 8.48814 23.8242 8.20659 24.5583 7.82919C24.2736 8.59897 23.6767 9.24894 22.8843 9.65929C23.6527 9.5874 24.3936 9.40169 25.0797 9.14111C24.5617 9.80605 23.9134 10.3961 23.169 10.8664V10.8664Z" fill="#251E4A"/>
</g>
</svg>
