<svg width="32" height="28" viewBox="0 0 32 28" fill="none" xmlns="http://www.w3.org/2000/svg">
<g id="&#240;&#159;&#166;&#134; icon &#34;google contained fill&#34;">
<path id="Vector" fill-rule="evenodd" clip-rule="evenodd" d="M15.9806 0.751404C7.49331 0.751404 0.613281 6.75927 0.613281 14.1699C0.613281 21.581 7.49331 27.5889 15.9806 27.5889C24.4673 27.5889 31.3479 21.5811 31.3479 14.1699C31.3479 6.75927 24.4673 0.751404 15.9806 0.751404ZM16.1601 22.0183C11.2069 22.0183 7.19489 18.5062 7.19489 14.17C7.19489 9.834 11.2069 6.32187 16.1601 6.32187C18.5809 6.32187 20.6032 7.10174 22.1557 8.36733L19.6282 10.5796V10.5746C18.687 9.78973 17.4936 9.38762 16.1601 9.38762C13.2017 9.38762 10.7979 11.5752 10.7979 14.1653C10.7979 16.7548 13.2018 18.9478 16.1601 18.9478C18.8442 18.9478 20.6706 17.6038 21.0464 15.7595H16.1601V12.6985H24.5927C24.7049 13.2232 24.7662 13.7727 24.7662 14.3466C24.7662 18.83 21.3375 22.0183 16.1601 22.0183V22.0183Z" fill="#251E4A"/>
</g>
</svg>
