<svg width="31" height="28" viewBox="0 0 31 28" fill="none" xmlns="http://www.w3.org/2000/svg">
<g id="&#240;&#159;&#166;&#134; icon &#34;instagram with circle&#34;">
<path id="Vector" d="M21.6217 10.0481C21.4884 9.74649 21.2842 9.47265 21.0223 9.24419C20.7603 9.01572 20.4465 8.83769 20.101 8.72157C19.6253 8.56771 19.1228 8.48639 18.6155 8.48115C17.7719 8.4476 17.519 8.43922 15.382 8.43922C13.245 8.43922 12.992 8.4476 12.1484 8.48115C11.6406 8.48623 11.1376 8.56755 10.6613 8.72157C10.316 8.83801 10.0024 9.01633 9.74071 9.24503C9.47906 9.47374 9.27518 9.74777 9.1422 10.0495C8.966 10.4649 8.87286 10.9036 8.86687 11.3466C8.82845 12.0832 8.81885 12.3041 8.81885 14.1701C8.81885 16.0362 8.82845 16.257 8.86687 16.9937C8.87268 17.4371 8.96582 17.8763 9.1422 18.2922C9.27555 18.5938 9.47976 18.8676 9.74168 19.0961C10.0036 19.3245 10.3174 19.5026 10.6629 19.6187C11.1387 19.7726 11.6411 19.8539 12.1484 19.8591C12.992 19.8927 13.245 19.8997 15.382 19.8997C17.519 19.8997 17.7719 19.8927 18.6155 19.8577C19.1232 19.8531 19.6263 19.7722 20.1026 19.6187C20.448 19.5023 20.7616 19.3239 21.0232 19.0952C21.2849 18.8665 21.4888 18.5925 21.6217 18.2908C21.7979 17.8754 21.8911 17.4366 21.8971 16.9937C21.9355 16.257 21.9435 16.0362 21.9435 14.1701C21.9435 12.3041 21.9355 12.0832 21.8955 11.3466C21.8902 10.9033 21.7976 10.464 21.6217 10.0481V10.0481ZM15.382 17.7596C14.5689 17.7596 13.7742 17.5491 13.0982 17.1547C12.4221 16.7603 11.8953 16.1997 11.5841 15.5438C11.273 14.8879 11.1916 14.1662 11.3502 13.4699C11.5088 12.7736 11.9003 12.134 12.4752 11.632C13.0501 11.13 13.7826 10.7881 14.58 10.6496C15.3774 10.5111 16.2039 10.5822 16.9551 10.8539C17.7062 11.1255 18.3482 11.5856 18.7999 12.1759C19.2516 12.7662 19.4927 13.4602 19.4927 14.1701C19.4927 15.1221 19.0596 16.0351 18.2887 16.7083C17.5178 17.3815 16.4722 17.7596 15.382 17.7596ZM19.6544 11.2781C19.4644 11.2781 19.2787 11.2289 19.1208 11.1368C18.9629 11.0446 18.8398 10.9136 18.7671 10.7604C18.6944 10.6071 18.6753 10.4385 18.7124 10.2758C18.7495 10.1131 18.8409 9.96371 18.9753 9.84642C19.1096 9.72913 19.2807 9.64925 19.467 9.61689C19.6533 9.58453 19.8465 9.60114 20.022 9.66462C20.1975 9.72809 20.3475 9.83559 20.453 9.97351C20.5585 10.1114 20.6149 10.2736 20.6149 10.4394C20.6149 10.6619 20.5137 10.8752 20.3335 11.0325C20.1534 11.1898 19.9091 11.2781 19.6544 11.2781V11.2781ZM18.0504 14.1701C18.0504 14.631 17.8939 15.0815 17.6007 15.4647C17.3075 15.8479 16.8907 16.1465 16.4031 16.3229C15.9155 16.4992 15.379 16.5454 14.8614 16.4555C14.3437 16.3656 13.8683 16.1436 13.4951 15.8178C13.1219 15.4919 12.8677 15.0767 12.7648 14.6247C12.6618 14.1727 12.7147 13.7042 12.9166 13.2784C13.1186 12.8527 13.4606 12.4888 13.8994 12.2327C14.3383 11.9767 14.8542 11.84 15.382 11.84C16.0897 11.84 16.7684 12.0855 17.2689 12.5225C17.7693 12.9595 18.0504 13.5522 18.0504 14.1701V14.1701ZM15.382 0.751404C12.3426 0.751404 9.37149 1.5384 6.84435 3.01287C4.31721 4.48734 2.34754 6.58306 1.18442 9.03501C0.0213068 11.487 -0.283017 14.185 0.309934 16.788C0.902885 19.391 2.36648 21.782 4.51564 23.6586C6.66479 25.5353 9.40299 26.8133 12.384 27.331C15.3649 27.8488 18.4548 27.5831 21.2628 26.5674C24.0708 25.5518 26.4708 23.8319 28.1594 21.6252C29.848 19.4185 30.7493 16.8241 30.7493 14.1701C30.7493 10.6113 29.1302 7.19816 26.2483 4.68166C23.3664 2.16516 19.4576 0.751404 15.382 0.751404V0.751404ZM23.3378 17.051C23.3242 17.631 23.1981 18.2047 22.9648 18.7479C22.7592 19.2121 22.4448 19.6336 22.0418 19.9855C21.6388 20.3374 21.156 20.6119 20.6245 20.7914C20.0029 20.995 19.3464 21.1051 18.6827 21.1171C17.8279 21.1507 17.5558 21.1591 15.382 21.1591C13.2081 21.1591 12.936 21.1507 12.0812 21.1171C11.4175 21.1051 10.761 20.995 10.1395 20.7914C9.60789 20.6119 9.12513 20.3374 8.72212 19.9855C8.3191 19.6336 8.00474 19.2121 7.79916 18.7479C7.56603 18.2052 7.43992 17.6319 7.42618 17.0524C7.38776 16.3059 7.37816 16.0683 7.37816 14.1701C7.37816 12.2719 7.38776 12.0343 7.42618 11.2879C7.4394 10.7085 7.56497 10.1352 7.79756 9.59239C8.00313 9.12782 8.31766 8.70591 8.72096 8.35375C9.12427 8.00158 9.60744 7.72693 10.1395 7.54743C10.7611 7.34434 11.4176 7.23469 12.0812 7.22315C12.936 7.1896 13.2081 7.18121 15.382 7.18121C17.5558 7.18121 17.8279 7.1896 18.6827 7.22315C19.3463 7.23469 20.0028 7.34434 20.6245 7.54743C21.1562 7.7271 21.6391 8.00182 22.0421 8.35398C22.4451 8.70613 22.7594 9.12796 22.9648 9.59239C23.1979 10.1351 23.324 10.7084 23.3378 11.2879C23.3762 12.0343 23.3858 12.2719 23.3858 14.1701C23.3858 16.0683 23.3762 16.3059 23.3378 17.0524V17.051Z" fill="#251E4A"/>
</g>
</svg>
