<svg width="32" height="28" viewBox="0 0 32 28" fill="none" xmlns="http://www.w3.org/2000/svg">
<g id="&#240;&#159;&#166;&#134; icon &#34;facebook&#34;">
<path id="Vector" d="M31.7438 14.2533C31.7438 6.79433 24.8176 0.751404 16.2813 0.751404C7.73928 0.751404 0.818848 6.79433 0.818848 14.2533C0.818848 20.9907 6.47136 26.5771 13.8653 27.5889V18.157H9.93882V14.2541H13.8653V11.2778C13.8653 7.89473 16.1702 6.02641 19.7034 6.02641C21.3956 6.02641 23.167 6.2897 23.167 6.2897V9.612H21.2139C19.2965 9.612 18.6974 10.6542 18.6974 11.7217V14.2533H22.9853L22.2963 18.1561H18.6974V27.588C26.0855 26.5762 31.7438 20.9898 31.7438 14.2524V14.2533Z" fill="#251E4A"/>
</g>
</svg>
