<svg id="Capa_1" data-name="Capa 1" xmlns="http://www.w3.org/2000/svg" viewBox="0 0 512 512"><defs><style>.cls-1,.cls-4{fill:#00c0d0;}.cls-2{fill:#1196a9;}.cls-3{fill:#fefffe;}.cls-4{font-size:89.37px;font-family:OpenSans-Bold, Open Sans;font-weight:700;}</style></defs><title>2876807</title><rect class="cls-1" x="26.51" y="27.26" width="458.98" height="457.48" rx="54.6" ry="54.6"/><path class="cls-2" d="M485.49,430.13v-274l-71.18-42.83L91.42,331.39c4.5,7.5,146,152.69,146,152.69l23.64.66H430.88A54.61,54.61,0,0,0,485.49,430.13Z"/><path class="cls-3" d="M403.19,110.6H111.81a24.55,24.55,0,0,0-24.55,24.55V322.07a24.55,24.55,0,0,0,24.55,24.55h98.65l34.69,60.08a14.26,14.26,0,0,0,24.7,0l34.69-60.08h98.65a24.55,24.55,0,0,0,24.55-24.55V135.15A24.55,24.55,0,0,0,403.19,110.6Z"/><text class="cls-4" transform="translate(128.34 262.21)">NEWS</text></svg>