<svg id="Capa_1" data-name="Capa 1" xmlns="http://www.w3.org/2000/svg" viewBox="0 0 512 512"><defs><style>.cls-1{fill:#fec74b;}.cls-2,.cls-4{fill:#f39a3c;}.cls-3{fill:#fefffe;}.cls-4{font-size:90.22px;font-family:OpenSans-Semibold, Open Sans;font-weight:700;letter-spacing:-0.03em;}.cls-5{font-size:69.44px;font-family:OpenSans-Bold, Open Sans;letter-spacing:-0.03em;}.cls-6{fill:none;stroke:#fefffe;stroke-miterlimit:10;stroke-width:9px;}</style></defs><title>2876807</title><rect class="cls-1" x="26.51" y="27.26" width="458.98" height="457.48" rx="54.6" ry="54.6"/><path class="cls-2" d="M318.59,101.6l-37.92,41-86.22-42.2-4.37,6.08,46.57,52,23.23,55,26.57,60.42L98,381c4.5,7.5,139.42,103.08,139.42,103.08l23.64.66H430.88a54.61,54.61,0,0,0,54.61-54.61V160.82Z"/><polygon class="cls-3" points="157.52 413.83 177.7 413.83 185.65 385.7 157.52 385.7 157.52 413.83"/><polygon class="cls-3" points="337.3 413.83 357.48 413.83 357.48 385.7 329.35 385.7 337.3 413.83"/><path class="cls-3" d="M403.19,149.6H111.81a24.55,24.55,0,0,0-24.55,24.55V361.07a24.55,24.55,0,0,0,24.55,24.55H403.19a24.55,24.55,0,0,0,24.55-24.55V174.15A24.55,24.55,0,0,0,403.19,149.6Z"/><text class="cls-4" transform="translate(198.98 261.17)">UP<tspan class="cls-5"><tspan x="-81.75" y="69.85">COMING</tspan></tspan></text><circle class="cls-3" cx="195.82" cy="102.52" r="11.92"/><line class="cls-6" x1="196.52" y1="106.84" x2="250.33" y2="169.21"/><line class="cls-6" x1="258.28" y1="171.66" x2="321.26" y2="105.01"/><circle class="cls-3" cx="319.18" cy="102.56" r="11.92"/></svg>